Coordinates
nRows=119
nColumns=2
inDegrees=yes
endheader
time	ankle_angle_r	
2.79133	 -5.215479	
2.8629	 -5.160705	
2.93448	 -5.184546	
3.00605	 -5.203247	
3.07762	 -5.161154	
3.14919	 -5.180863	
3.22077	 -5.310059	
3.29234	 -5.288507	
3.36391	 -5.249023	
3.43548	 -5.279541	
3.50706	 -5.269389	
3.57863	 -5.305429	
3.6502	 -5.233765	
3.72177	 -5.292866	
3.79335	 -5.319378	
3.86492	 -5.258135	
3.93649	 -5.270637	
4.00806	 -5.270845	
4.07964	 -5.318546	
4.15121	 -5.264282	
4.22278	 -5.218506	
4.29435	 -5.241159	
4.36593	 -5.203247	
4.4375	 -5.210695	
4.50907	 -5.218506	
4.58065	 -5.133985	
4.65222	 -5.249023	
4.72379	 -5.190016	
4.79536	 -5.242616	
4.86694	 -5.288600	
4.93851	 -5.307343	
5.01008	 -5.249023	
5.08165	 -5.254599	
5.15323	 -5.320794	
5.2248	 -5.152531	
5.29637	 -5.106743	
5.36794	 -5.162214	
5.43952	 -5.146748	
5.51109	 -5.175006	
5.58266	 -5.172729	
5.65423	 -5.279541	
5.72581	 -5.267986	
5.79738	 -5.291305	
5.86895	 -5.225080	
5.94052	 -5.297879	
6.0121	 -5.325317	
6.08367	 -5.266945	
6.15524	 -5.249023	
6.22681	 -5.172729	
6.29839	 -5.190027	
6.36996	 -5.155640	
6.44153	 -5.082800	
6.5131	 -5.157471	
6.58468	 -5.172729	
6.65625	 -5.185990	
6.72782	 -5.036191	
6.7994	 -5.219089	
6.87097	 -5.218506	
6.94254	 -5.172563	
7.01411	 -5.218547	
7.08569	 -5.279541	
7.15726	 -5.324860	
7.22883	 -5.235760	
7.3004	 -5.291307	
7.37198	 -5.311140	
7.44355	 -5.278252	
7.51512	 -5.281038	
7.58669	 -5.264282	
7.65827	 -5.300539	
7.72984	 -5.285905	
7.80141	 -5.244365	
7.87298	 -5.307521	
7.94456	 -5.269773	
8.01613	 -5.294800	
8.0877	 -5.230603	
8.15927	 -5.249023	
8.23085	 -5.218506	
8.30242	 -5.084962	
8.37399	 -5.134225	
8.44556	 -5.138011	
8.51714	 -5.198838	
8.58871	 -5.136188	
8.66028	 -5.167904	
8.73185	 -5.126953	
8.80343	 -5.116470	
8.875	 -5.161830	
8.94657	 -5.045002	
9.01815	 -5.294800	
9.08972	 -5.212432	
9.16129	 -5.078481	
9.23286	 -5.251303	
9.30444	 -5.181291	
9.37601	 -5.157471	
9.44758	 -5.073032	
9.51915	 -5.112925	
9.59073	 -5.195518	
9.6623	 -5.149950	
9.73387	 -5.103748	
9.80544	 -5.104589	
9.87702	 -5.301697	
9.94859	 -5.264282	
10.0202	 -5.273060	
10.0917	 -5.416870	
10.1633	 -5.416870	
10.2349	 -5.416870	
10.3065	 -5.397650	
10.378	 -5.381975	
10.4496	 -5.340576	
10.5212	 -5.269307	
10.5927	 -5.274724	
10.6643	 -5.264282	
10.7359	 -5.305658	
10.8075	 -5.257409	
10.879	 -5.249023	
10.9506	 -5.317612	
11.0222	 -5.264282	
11.0937	 -5.264282	
11.1653	 -5.206399	
11.2369	 -5.190933	
